# AST/ASF file generated using VICON BodyLanguage
# -----------------------------------------------
:version 1.10
:name VICON
:units
  mass 1.0
  length 0.45
  angle deg
:documentation
   .ast/.asf automatically generated from VICON data using
   VICON BodyBuilder and BodyLanguage model FoxedUp or BRILLIANT.MOD
:root
   order TX TY TZ RX RY RZ
   axis XYZ
   position 0 0 0  
   orientation 0 0 0 
:bonedata
  begin
     id 1 
     name lhipjoint
     direction 0.707368 -0.647095 0.284426 
     length 2.60678 
     axis 0 0 0  XYZ
  end
  begin
     id 2 
     name lfemur
     direction 0.34202 -0.939693 0  
     length 6.63812  
     axis 0 0 20  XYZ
    dof rx ry rz
    limits (-160.0 20.0)
           (-70.0 70.0)
           (-60.0 70.0)
  end
  begin
     id 3 
     name ltibia
     direction 0.34202 -0.939693 0   
     length 7.51178   
     axis 0 0 20   XYZ
    dof rx
    limits (-10.0 170.0)
  end
  begin
     id 4 
     name lfoot
     direction 0.121251 -0.333133 0.935051   
     length 1.83716   
     axis -90 7.62852e-016 20   XYZ
    dof rx rz
    limits (-45.0 90.0)
           (-70.0 20.0)
  end
  begin
     id 5 
     name ltoes
     direction 1.53611e-011 -4.21962e-011 1   
     length 0.916133   
     axis -90 7.62852e-016 20   XYZ
    dof rx
    limits (-90.0 20.0)
  end
  begin
     id 6 
     name rhipjoint
     direction -0.692419 -0.660507 0.290321   
     length 2.55385  
     axis 0 0 0  XYZ 
  end
  begin
     id 7 
     name rfemur
     direction -0.34202 -0.939693 0   
     length 7.29079   
     axis 0 0 -20   XYZ
    dof rx ry rz
    limits (-160.0 20.0)
           (-70.0 70.0)
           (-70.0 60.0)
  end
  begin
     id 8 
     name rtibia
     direction -0.34202 -0.939693 0   
     length 7.47143   
     axis 0 0 -20   XYZ
    dof rx
    limits (-10.0 170.0)
 end
 begin
     id 9 
     name rfoot
     direction -0.119907 -0.329441 0.936532   
     length 1.79439  
     axis -90 -7.62852e-016 -20   XYZ
    dof rx rz
    limits (-45.0 90.0)
           (-20.0 70.0)
  end
  begin
     id 10 
     name rtoes
     direction -1.53571e-011 -4.21961e-011 1   
     length 0.896039   
     axis -90 -7.62852e-016 -20   XYZ
    dof rx
    limits (-90.0 20.0)
  end
  begin
     id 11 
     name lowerback
     direction 0.0367721 0.992912 -0.113016   
     length 1.73542   
     axis 0 0 0   XYZ
    dof rx ry rz
    limits (-20.0 45.0)
           (-30.0 30.0)
           (-30.0 30.0)
  end
  begin
     id 12 
     name upperback
     direction -0.000314626 0.990678 0.136227   
     length 1.7514   
     axis 0 0 0   XYZ
    dof rx ry rz
    limits (-20.0 45.0)
           (-30.0 30.0)
           (-30.0 30.0)
  end
  begin
     id 13 
     name thorax
     direction -0.0226159 0.981151 0.191917   
     length 1.71471   
     axis 0 0 0   XYZ
    dof rx ry rz
    limits (-20.0 45.0)
           (-30.0 30.0)
           (-30.0 30.0)
  end
  begin
     id 14 
     name lowerneck
     direction 0.0219333 0.998071 0.0580739   
     length 1.65882   
     axis 0 0 0   XYZ
    dof rx ry rz
    limits (-20.0 45.0)
           (-30.0 30.0)
           (-30.0 30.0)
  end
  begin
     id 15 
     name upperneck
     direction 0.0384529 0.980058 -0.194957   
     length 1.6612   
     axis 0 0 0   XYZ
    dof rx ry rz
    limits (-20.0 45.0)
           (-30.0 30.0)
           (-30.0 30.0)
  end
  begin
     id 16
     name head
     direction 0.00592123 0.997421 -0.0715234  
     length 1.68077  
     axis 0 0 0   XYZ
    dof rx ry rz
    limits (-20.0 45.0)
           (-30.0 30.0)
           (-30.0 30.0)
  end
  begin
     id 17 
     name lclavicle
     direction 0.904803 0.417826 0.0821728  
     length 3.42227  
     axis 0 0 0   XYZ
    dof ry rz
    limits (-20.0 10.0)
           (0.0 20.0)
  end
  begin
     id 18 
     name lhumerus
     direction 1 -4.48965e-011 -2.68786e-027   
     length 5.11878   
     axis -180 -30 -90   XYZ
    dof rx ry rz
    limits (-60.0 90.0)
           (-90.0 90.0)
           (-90.0 90.0)
  end
  begin
     id 19
     name lradius
     direction 1 -4.48965e-011 2.61168e-028   
     length 3.59971   
     axis -180 -30 -90   XYZ
    dof rx
    limits (-10.0 170.0)
  end
  begin
     id 20
     name lwrist
     direction 1 -4.48965e-011 1.58672e-027   
     length 1.79985   
     axis -1.65735e-015 90 90   XYZ
    dof ry
    limits (-180.0 0.0)
 end
  begin
     id 21 
     name lhand
     direction 1 -4.48942e-011 3.17344e-027   
     length 0.62877   
     axis -2.02492e-015 90 90   XYZ
    dof rx rz
    limits (-90.0 90.0)
           (-45.0 45.0)
  end
  begin
     id 22 
     name lfingers
     direction 1 -4.49011e-011 6.34687e-027   
     length 0.506931   
     axis -4.04985e-015 90 90   XYZ
    dof rx
    limits (0.0 90.0)
  end
  begin
     id 23
     name lthumb
     direction 0.707107 -6.34982e-011 0.707107   
     length 0.727854   
     axis -90 45 2.85299e-015   XYZ
    dof rx rz
    limits (-45.0 45.0)
           (-45.0 45.0)
  end
  begin
     id 24 
     name rclavicle
     direction -0.945647 0.32488 0.0143075   
     length 3.52737  
     axis 0 0 0   XYZ 
    dof ry rz
    limits (-10.0 20.0)
           (-20.0 0.0)
  end
  begin
     id 25 
     name rhumerus
     direction -1 -4.48962e-011 1.92182e-027  
     length 5.4902   
     axis -180 30 90   XYZ
    dof rx ry rz
    limits (-90.0 60.0)
           (-90.0 90.0)
           (-90.0 90.0)
  end
  begin
     id 26 
     name rradius
     direction -1 -4.48967e-011 -5.97193e-028   
     length 3.20659   
     axis -180 30 90   XYZ
    dof rx
    limits (-10.0 170.0)
  end
  begin
     id 27 
     name rwrist
     direction -1 -4.48964e-011 1.58672e-027   
     length 1.6033   
     axis -1.65735e-015 -90 -90   XYZ
    dof ry
    limits (-180.0 0.0)
  end
  begin
     id 28
     name rhand
     direction -1 -4.49006e-011 3.17344e-027   
     length 0.691885   
     axis -2.02492e-015 -90 -90   XYZ
    dof rx rz
    limits (-90.0 90.0)
           (-45.0 45.0)
  end
  begin
     id 29
     name rfingers
     direction -1 -4.48908e-011 6.34687e-027   
     length 0.557815   
     axis -4.04985e-015 -90 -90   XYZ
    dof rx
    limits (0.0 90.0)
  end
  begin
     id 30
     name rthumb
     direction -0.707107 -6.34999e-011 0.707107   
     length 0.800915   
     axis -90 -45 -2.85299e-015   XYZ
    dof rx rz
    limits (-45.0 45.0)
           (-45.0 45.0)
  end
:hierarchy
  begin
    root lhipjoint rhipjoint lowerback
    lhipjoint lfemur
    lfemur ltibia
    ltibia lfoot
    lfoot ltoes
    rhipjoint rfemur
    rfemur rtibia
    rtibia rfoot
    rfoot rtoes
    lowerback upperback
    upperback thorax
    thorax lowerneck lclavicle rclavicle
    lowerneck upperneck
    upperneck head
    lclavicle lhumerus
    lhumerus lradius
    lradius lwrist
    lwrist lhand lthumb
    lhand lfingers
    rclavicle rhumerus
    rhumerus rradius
    rradius rwrist
    rwrist rhand rthumb
    rhand rfingers
  end

#!OML:ASF I:\Actors\actors\Patient Classification 1\Patient 1\Session 1\Subject1.ASF
:FULLY-SPECIFIED
:DEGREES
1
root -0.31748 17.4641 7.81247 8.44346 -6.22511 -8.16182
lowerback -0.0359548 1.30549 5.61856
upperback -9.01079 2.14658 1.43355
thorax -9.3785 0.6721 -1.78012
lowerneck -7.93987 -8.79487 -6.5623
upperneck 23.5846 -13.667 9.21213
head 9.87471 -6.08872 2.70831
rclavicle -1.17283e-014 -7.15625e-015
rhumerus -46.3593 -19.3842 -74.4774
rradius 26.2733
rwrist 40.0286
rhand 4.8745 -32.1488
rfingers 7.12502
rthumb 30.2503 -59.6905
lclavicle -1.17283e-014 -7.15625e-015
lhumerus -42.8163 16.1835 76.3651
lradius 21.8896
lwrist -34.158
lhand -11.9347 -11.2943
lfingers 7.12502
lthumb 14.12 18.2059
rfemur -2.47662 25.2095 25.3331
rtibia 2.27639
rfoot -10.1922 -19.3676
rtoes -4.03471
lfemur 9.59456 -42.514 -18.2285
ltibia -4.76514
lfoot -28.9015 55.1161
ltoes 20.8898
2
root -0.318465 17.4644 7.81095 8.45344 -6.21825 -8.05887
lowerback -0.155862 1.12402 5.43813
upperback -9.13592 1.90269 1.61637
thorax -9.47455 0.570658 -1.46481
lowerneck -7.17597 -8.55594 -6.96242
upperneck 23.4602 -13.285 9.23412
head 9.67884 -5.9771 2.86634
rclavicle -2.24627e-014 2.46493e-014
rhumerus -46.5863 -18.701 -74.3995
rradius 26.1571
rwrist 40.0947
rhand 5.05828 -32.1159
rfingers 7.12502
rthumb 30.4256 -59.6253
lclavicle -2.24627e-014 2.46493e-014
lhumerus -43.4812 16.2268 76.5148
lradius 21.7983
lwrist -32.6602
lhand -12.9972 -11.2805
lfingers 7.12502
lthumb 13.0959 18.2883
rfemur -2.49977 25.245 25.2044
rtibia 2.27983
rfoot -10.2295 -19.4397
rtoes -3.88991
lfemur 9.57814 -42.6516 -18.3716
ltibia -4.71604
lfoot -29.1369 55.1768
ltoes 21.207
3
root -0.319006 17.4644 7.80955 8.44809 -6.17984 -8.07858
lowerback -0.180185 0.920802 5.39397
upperback -9.00155 1.6375 1.87485
thorax -9.33534 0.46144 -1.14506
lowerneck -7.5623 -8.43584 -7.39413
upperneck 23.6041 -13.0255 9.18415
head 9.80568 -5.88036 2.93495
rclavicle 2.13694e-015 -1.68967e-014
rhumerus -46.1665 -18.0692 -74.5029
rradius 25.9638
rwrist 39.9365
rhand 4.8846 -32.0882
rfingers 7.12502
rthumb 30.2599 -59.6281
lclavicle 2.13694e-015 -1.68967e-014
lhumerus -43.5478 16.7258 76.7141
lradius 21.5936
lwrist -31.5642
lhand -14.0926 -11.37
lfingers 7.12502
lthumb 12.0398 18.2637
rfemur -2.48802 25.2471 25.2359
rtibia 2.27675
rfoot -10.2398 -19.4731
rtoes -3.92739
lfemur 9.60361 -42.6773 -18.3552
ltibia -4.74804
lfoot -29.0155 55.2037
ltoes 21.0223
4
root -0.31928 17.4644 7.80791 8.41229 -6.12468 -8.13715
lowerback -0.153119 0.697883 5.38751
upperback -8.8659 1.35249 2.1511
thorax -9.22425 0.339089 -0.827533
lowerneck -7.9565 -8.32004 -7.83059
upperneck 23.7226 -12.7521 9.09485
head 9.92071 -5.78292 2.99349
rclavicle -2.65874e-015 -3.45885e-014
rhumerus -45.7654 -17.4904 -74.561
rradius 25.73
rwrist 39.8957
rhand 4.73976 -32.1601
rfingers 7.12502
rthumb 30.1217 -59.7253
lclavicle -2.65874e-015 -3.45885e-014
lhumerus -43.637 17.2865 76.8747
lradius 21.3947
lwrist -30.5543
lhand -15.1907 -11.338
lfingers 7.12502
lthumb 10.9808 18.3548
rfemur -2.42239 25.2435 25.3354
rtibia 2.25026
rfoot -10.2202 -19.4971
rtoes -3.93146
lfemur 9.6247 -42.581 -18.2744
ltibia -4.77137
lfoot -28.7481 55.123
ltoes 20.6602
5
root -0.323385 17.4682 7.81239 8.4915 -6.09104 -7.87365
lowerback -0.363307 0.687496 5.10373
upperback -8.8584 1.30193 2.06125
thorax -9.09272 0.335124 -0.759316
lowerneck -7.9247 -8.38182 -7.84184
upperneck 23.6949 -12.8242 9.0436
head 9.90914 -5.8242 2.96878
rclavicle -8.79622e-015 -1.21259e-014
rhumerus -45.7901 -17.7211 -74.4443
rradius 25.3873
rwrist 40.0454
rhand 4.67724 -32.2055
rfingers 7.12502
rthumb 30.0621 -59.7816
lclavicle -8.79622e-015 -1.21259e-014
lhumerus -43.6424 16.9624 77.0899
lradius 21.1641
lwrist -29.4794
lhand -16.3433 -11.2428
lfingers 7.12502
lthumb 9.86894 18.5059
rfemur -2.47536 25.2636 24.998
rtibia 2.09931
rfoot -10.11 -19.6036
rtoes -3.51031
lfemur 9.42469 -42.565 -18.4483
ltibia -4.71264
lfoot -28.6767 55.0613
ltoes 20.6149
6
root -0.331399 17.4746 7.82402 8.68219 -6.07098 -7.45046
lowerback -0.830447 0.657513 4.57069
upperback -8.86848 1.19889 1.9709
thorax -8.83284 0.32626 -0.546728
lowerneck -7.94402 -8.42704 -7.91356
upperneck 23.8122 -12.8928 9.05544
head 9.96795 -5.85809 2.97435
rclavicle -1.04362e-015 -2.10712e-014
rhumerus -45.7244 -17.8408 -74.3756
rradius 24.884
rwrist 40.0824
rhand 4.53125 -32.2159
rfingers 7.12502
rthumb 29.9228 -59.8171
lclavicle -1.04362e-015 -2.10712e-014
lhumerus -43.5909 16.3422 77.6908
lradius 20.8888
lwrist -27.0244
lhand -18.6132 -11.3261
lfingers 7.12502
lthumb 7.6785 18.5145
rfemur -2.6194 25.3351 24.4278
rtibia 1.83689
rfoot -9.92077 -19.8105
rtoes -2.80761
lfemur 9.14935 -42.8218 -18.786
ltibia -4.64354
lfoot -28.91 55.1815
ltoes 20.8833
7
root -0.335642 17.477 7.82834 8.79655 -6.03593 -7.30453
lowerback -1.05287 0.629111 4.36561
upperback -8.87112 1.13657 1.95261
thorax -8.70779 0.312512 -0.445832
lowerneck -7.98866 -8.49166 -7.9845
upperneck 23.9083 -12.9806 9.04837
head 10.0248 -5.90211 2.96927
rclavicle -7.25564e-015 6.36111e-015
rhumerus -45.7301 -18.0167 -74.2668
rradius 24.548
rwrist 40.1551
rhand 4.44248 -32.2938
rfingers 7.12502
rthumb 29.8381 -59.9103
lclavicle -7.25564e-015 6.36111e-015
lhumerus -43.7073 16.7715 77.3067
lradius 20.6742
lwrist -27.6287
lhand -18.6423 -11.5366
lfingers 7.12502
lthumb 7.65045 18.305
rfemur -2.7091 25.3975 24.2175
rtibia 1.71571
rfoot -9.83895 -19.9463
rtoes -2.45602
lfemur 8.99809 -43.0153 -18.8681
ltibia -4.61429
lfoot -28.9993 55.287
ltoes 20.9322
8
root -0.33638 17.4759 7.82416 8.83254 -5.99114 -7.35851
lowerback -1.02555 0.599383 4.40418
upperback -8.86167 1.10137 1.98002
thorax -8.71527 0.293435 -0.436361
lowerneck -8.03489 -8.57638 -7.96246
upperneck 23.9303 -13.0853 8.96773
head 10.0447 -5.95465 2.92088
rclavicle -9.29318e-015 -5.96354e-016
rhumerus -45.8023 -18.2933 -74.0858
rradius 24.3466
rwrist 40.477
rhand 4.36278 -32.2259
rfingers 7.12502
rthumb 29.762 -59.856
lclavicle -9.29318e-015 -5.96354e-016
lhumerus -43.7593 17.1266 77.0067
lradius 20.5161
lwrist -28.0662
lhand -18.6696 -11.5403
lfingers 7.12502
lthumb 7.62402 18.3023
rfemur -2.76039 25.3979 24.2717
rtibia 1.73571
rfoot -9.84804 -19.9661
rtoes -2.52257
lfemur 8.89012 -42.9302 -18.7012
ltibia -4.6325
lfoot -28.7591 55.2257
ltoes 20.6747
9
root -0.337307 17.4756 7.82019 8.85696 -5.95888 -7.39726
lowerback -1.0032 0.588012 4.44061
upperback -8.85324 1.08726 1.96037
thorax -8.71903 0.282875 -0.476738
lowerneck -8.00417 -8.66892 -7.79252
upperneck 23.8974 -13.201 8.79557
head 10.0131 -6.01277 2.81895
rclavicle 7.70291e-015 -6.95746e-015
rhumerus -45.9139 -18.7986 -73.8065
rradius 24.0654
rwrist 41.0955
rhand 4.28054 -31.9641
rfingers 7.12502
rthumb 29.6835 -59.6082
lclavicle 7.70291e-015 -6.95746e-015
lhumerus -43.7122 17.4558 76.668
lradius 20.2898
lwrist -28.4035
lhand -18.6254 -11.4048
lfingers 7.12502
lthumb 7.6667 18.4363
rfemur -2.7862 25.4136 24.3131
rtibia 1.72665
rfoot -9.84727 -20
rtoes -2.52968
lfemur 8.81735 -42.873 -18.574
ltibia -4.65767
lfoot -28.6765 55.1528
ltoes 20.7146
10
root -0.337586 17.477 7.81751 8.86679 -5.93392 -7.36384
lowerback -1.00569 0.625836 4.44756
upperback -8.85103 1.13164 1.86345
thorax -8.71092 0.300143 -0.585894
lowerneck -7.87652 -8.79058 -7.65553
upperneck 23.7926 -13.3723 8.7085
head 9.95112 -6.09594 2.74915
rclavicle 1.36664e-014 -1.2921e-014
rhumerus -46.0743 -19.4699 -73.4733
rradius 23.7686
rwrist 41.7268
rhand 4.32232 -31.7499
rfingers 7.12502
rthumb 29.7234 -59.3869
lclavicle 1.36664e-014 -1.2921e-014
lhumerus -43.5766 17.7288 76.3011
lradius 20.0868
lwrist -29.0587
lhand -18.2972 -10.7312
lfingers 7.12502
lthumb 7.98351 19.0981
rfemur -2.7839 25.4282 24.2685
rtibia 1.67842
rfoot -9.86577 -20.0572
rtoes -2.48323
lfemur 8.79478 -42.9685 -18.5978
ltibia -4.65892
lfoot -28.7964 55.2029
ltoes 20.8756
11
root -0.337893 17.478 7.81377 8.89897 -5.93892 -7.34422
lowerback -1.0094 0.674344 4.45045
upperback -8.8535 1.19298 1.80471
thorax -8.70735 0.327662 -0.653467
lowerneck -7.78782 -8.8592 -7.58596
upperneck 23.7082 -13.484 8.73099
head 9.91135 -6.14437 2.73486
rclavicle -3.23025e-015 -3.97569e-016
rhumerus -46.2215 -19.9504 -73.2235
rradius 23.5991
rwrist 42.1549
rhand 4.43972 -31.7091
rfingers 7.12502
rthumb 29.8354 -59.3261
lclavicle -3.23025e-015 -3.97569e-016
lhumerus -43.4361 17.9388 76.0838
lradius 20.0669
lwrist -29.8701
lhand -17.7155 -9.4509
lfingers 7.12502
lthumb 8.54492 20.3562
rfemur -2.84371 25.3845 24.2173
rtibia 1.67094
rfoot -9.85616 -20.0295
rtoes -2.64925
lfemur 8.76549 -43.0923 -18.6075
ltibia -4.66482
lfoot -29.0128 55.2859
ltoes 20.9553
12
root -0.339357 17.4774 7.80929 8.97776 -6.00534 -7.37278
lowerback -1.02241 0.727887 4.46183
upperback -8.88125 1.26512 1.79537
thorax -8.72701 0.361289 -0.673976
lowerneck -7.69535 -8.90479 -7.71807
upperneck 23.6606 -13.5685 8.88889
head 9.90714 -6.18347 2.80318
rclavicle 5.91384e-015 -3.97569e-015
rhumerus -46.3635 -20.3105 -73.0385
rradius 23.4792
rwrist 42.5233
rhand 4.43242 -31.8292
rfingers 7.12502
rthumb 29.8285 -59.4474
lclavicle 5.91384e-015 -3.97569e-015
lhumerus -43.3637 18.1097 75.9475
lradius 20.0922
lwrist -30.2966
lhand -17.4186 -8.71355
lfingers 7.12502
lthumb 8.83145 21.0817
rfemur -2.97962 25.4081 24.2016
rtibia 1.70568
rfoot -9.79245 -19.9822
rtoes -2.72498
lfemur 8.74385 -43.2763 -18.571
ltibia -4.68713
lfoot -29.4526 55.421
ltoes 21.2879
13
root -0.340434 17.4771 7.80624 9.03263 -6.06487 -7.38174
lowerback -1.03844 0.784056 4.48879
upperback -8.90723 1.33921 1.75847
thorax -8.7419 0.393559 -0.732373
lowerneck -7.54983 -8.94743 -7.90286
upperneck 23.6254 -13.6718 9.14783
head 9.91135 -6.22766 2.91483
rclavicle -5.91384e-015 2.98177e-015
rhumerus -46.4666 -20.6274 -72.9211
rradius 23.2919
rwrist 42.8136
rhand 4.23149 -31.941
rfingers 7.12502
rthumb 29.6367 -59.5935
lclavicle -5.91384e-015 2.98177e-015
lhumerus -43.3319 18.2578 75.786
lradius 20.1177
lwrist -30.4089
lhand -17.3813 -8.71602
lfingers 7.12502
lthumb 8.86744 21.0777
rfemur -3.05074 25.5124 24.1878
rtibia 1.70694
rfoot -9.77389 -20.0251
rtoes -2.53823
lfemur 8.79965 -43.551 -18.6257
ltibia -4.72444
lfoot -29.8581 55.6746
ltoes 21.5366
14
root -0.341061 17.4773 7.80373 9.04159 -6.08647 -7.36554
lowerback -1.04569 0.800882 4.50421
upperback -8.8934 1.3608 1.74951
thorax -8.72088 0.403206 -0.751722
lowerneck -7.47141 -8.97567 -8.12833
upperneck 23.581 -13.7262 9.34493
head 9.91877 -6.2565 3.01503
rclavicle 1.20762e-014 -8.74653e-015
rhumerus -46.4368 -20.7334 -72.9134
rradius 23.1215
rwrist 42.9719
rhand 4.18055 -31.9826
rfingers 7.12502
rthumb 29.5881 -59.6437
lclavicle 1.20762e-014 -8.74653e-015
lhumerus -43.298 18.5089 75.6672
lradius 20.1982
lwrist -30.3313
lhand -17.3501 -8.80764
lfingers 7.12502
lthumb 8.89752 20.9848
rfemur -3.04056 25.5775 24.1692
rtibia 1.65753
rfoot -9.76223 -20.0722
rtoes -2.42465
lfemur 8.87061 -43.7385 -18.7089
ltibia -4.75753
lfoot -30.0907 55.836
ltoes 21.6308
